<?xml version="1.0" encoding="utf-8"?>
<!-- Svg Vector Icons : http://www.onlinewebfonts.com/icon -->
<!DOCTYPE svg PUBLIC "-//W3C//DTD SVG 1.1//EN" "http://www.w3.org/Graphics/SVG/1.1/DTD/svg11.dtd">
<svg version="1.1" xmlns="http://www.w3.org/2000/svg" xmlns:xlink="http://www.w3.org/1999/xlink" x="0px" y="0px" viewBox="0 0 1000 1000" enable-background="new 0 0 1000 1000" xml:space="preserve">
<metadata> Svg Vector Icons : http://www.onlinewebfonts.com/icon </metadata>
<g><path d="M319,211.5c-50,23.8-89.5,64.8-111.5,115.6c-6.3,14.7,0.5,31.8,15.1,38.1c3.7,1.6,7.6,2.4,11.5,2.4c11.2,0,21.9-6.5,26.6-17.5c16.4-37.9,46-68.5,83.3-86.4c14.5-6.9,20.6-24.2,13.7-38.6C350.8,210.8,333.5,204.6,319,211.5L319,211.5z"/><path d="M616.3,388.7c-16,0-29,12.9-29,29c0,93.9-76.4,170.3-170.3,170.3c-16,0-29,12.9-29,29c0,16,12.9,29,29,29c60.9,0,118.2-23.7,161.3-66.8c43.1-43.1,66.8-100.4,66.8-161.3C645.3,401.6,632.3,388.7,616.3,388.7L616.3,388.7z"/><path d="M965.2,844.5l-203.7-203c-2.8-2.8-6-5-9-7.3c41.2-63.3,65.3-138.7,65.3-219.9c0-223.1-180.8-403.9-403.9-403.9C190.9,10.4,10,191.2,10,414.3c0,223.1,180.9,403.9,403.9,403.9c81.2,0,156.6-24.1,220-65.4c2.3,3.1,4.4,6.1,7.2,8.9l203.7,203c16.7,16.6,38.4,24.9,60.1,24.9c21.8,0,43.5-8.3,60.1-24.9C998.3,931.5,998.3,877.7,965.2,844.5 M413.9,714.7c-165.6,0-300.4-134.8-300.4-300.4c0-165.6,134.8-300.4,300.4-300.4c165.6,0,300.3,134.8,300.3,300.4C714.3,579.9,579.5,714.7,413.9,714.7"/></g>
</svg>